<?xml version="1.0" encoding="iso-8859-1"?>
<!-- Generator: Adobe Illustrator 19.0.0, SVG Export Plug-In . SVG Version: 6.00 Build 0)  -->
<svg version="1.1" id="Capa_1" xmlns="http://www.w3.org/2000/svg" xmlns:xlink="http://www.w3.org/1999/xlink" x="0px" y="0px"
	 viewBox="0 0 512 512" style="enable-background:new 0 0 512 512;" xml:space="preserve">
<g>
	<g>
		<path d="M244.376,56.597c-5.198-1.864-10.923,0.837-12.788,6.036L218.36,99.508L205.13,62.632
			c-1.425-3.973-5.192-6.623-9.412-6.623s-7.987,2.65-9.413,6.624l-13.228,36.875l-13.229-36.876
			c-1.865-5.198-7.59-7.902-12.789-6.036c-5.198,1.865-7.9,7.591-6.036,12.789l22.642,63.113c1.425,3.973,5.192,6.623,9.412,6.623
			s7.987-2.65,9.412-6.624l13.228-36.875l13.229,36.876c1.425,3.973,5.192,6.623,9.412,6.623s7.987-2.65,9.413-6.624l22.641-63.113
			C252.277,64.188,249.575,58.462,244.376,56.597z"/>
	</g>
</g>
<g>
	<g>
		<path d="M275.499,56.011c-5.523,0-9.999,4.477-9.999,9.999v63.997c0,5.523,4.477,10,9.999,10s10-4.477,10-10V66.01
			C285.498,60.487,281.021,56.011,275.499,56.011z"/>
	</g>
</g>
<g>
	<g>
		<path d="M361.563,56.011c-5.523,0-9.999,4.477-9.999,9.999v34.279l-30.602-40.325c-2.595-3.42-7.087-4.802-11.154-3.433
			c-4.07,1.37-6.811,5.184-6.811,9.477v63.997c0,5.523,4.477,9.999,9.999,9.999c5.523,0,10-4.477,10-9.999V95.726l30.602,40.325
			c1.927,2.54,4.899,3.956,7.967,3.955c1.064,0,2.14-0.17,3.188-0.522c4.07-1.37,6.811-5.184,6.811-9.478V66.01
			C371.563,60.487,367.086,56.011,361.563,56.011z"/>
	</g>
</g>
<g>
	<g>
		<path d="M387.993,0.013H124.007c-16.541,0-29.998,13.457-29.998,29.998v135.993c0,16.541,13.457,29.998,29.998,29.998h263.986
			c16.541,0,29.998-13.457,29.998-29.998V30.012C417.991,13.471,404.534,0.013,387.993,0.013z M397.992,166.005
			c0,5.514-4.486,10-9.999,10H124.007c-5.514,0-9.999-4.486-9.999-10V30.012c0-5.514,4.486-10,9.999-10h263.986
			c5.514,0,9.999,4.486,9.999,10V166.005z"/>
	</g>
</g>
<g>
	<g>
		<path d="M244.377,372.58c-5.198-1.865-10.923,0.838-12.789,6.037l-13.228,36.875l-13.229-36.876
			c-1.425-3.973-5.192-6.623-9.412-6.623s-7.987,2.65-9.413,6.624l-13.228,36.875l-13.229-36.876
			c-1.865-5.198-7.59-7.903-12.789-6.036c-5.198,1.865-7.9,7.591-6.036,12.789l22.642,63.113c1.425,3.973,5.192,6.623,9.412,6.623
			s7.987-2.65,9.412-6.624l13.228-36.875l13.229,36.876c1.425,3.973,5.192,6.623,9.412,6.623s7.987-2.65,9.413-6.624l22.641-63.113
			C252.278,380.17,249.576,374.445,244.377,372.58z"/>
	</g>
</g>
<g>
	<g>
		<path d="M275.499,371.994c-5.523,0-9.999,4.477-9.999,10v63.997c0,5.523,4.477,10,9.999,10s10-4.477,10-10v-63.997
			C285.498,376.471,281.021,371.994,275.499,371.994z"/>
	</g>
</g>
<g>
	<g>
		<path d="M361.564,371.995c-5.523,0-10,4.477-10,10v34.279l-30.602-40.325c-2.595-3.42-7.087-4.801-11.154-3.433
			c-4.07,1.37-6.811,5.184-6.811,9.477v63.997c0,5.523,4.477,9.999,10,9.999s9.999-4.477,9.999-9.999v-34.279l30.602,40.325
			c1.927,2.54,4.899,3.956,7.967,3.955c1.064,0,2.14-0.17,3.188-0.522c4.07-1.37,6.811-5.184,6.811-9.478v-63.997
			C371.564,376.472,367.087,371.995,361.564,371.995z"/>
	</g>
</g>
<g>
	<g>
		<path d="M278.569,318.927c-1.86-1.861-4.44-2.93-7.07-2.93c-2.63,0-5.21,1.07-7.07,2.93c-1.86,1.86-2.93,4.44-2.93,7.07
			s1.07,5.21,2.93,7.07c1.86,1.86,4.44,2.93,7.07,2.93c2.63,0,5.21-1.07,7.07-2.93c1.86-1.86,2.93-4.44,2.93-7.07
			S280.428,320.787,278.569,318.927z"/>
	</g>
</g>
<g>
	<g>
		<path d="M387.993,315.997h-74.996c-5.523,0-10,4.477-10,9.999s4.477,9.999,10,9.999h74.996c5.514,0,9.999,4.486,9.999,10v135.993
			c0,5.514-4.486,10-9.999,10H124.007c-5.514,0-9.999-4.486-9.999-10V345.995c0-5.514,4.486-10,9.999-10h102.995
			c5.523,0,9.999-4.477,9.999-9.999s-4.477-9.999-9.999-9.999H124.007c-16.541,0-29.998,13.457-29.998,29.998v135.993
			c0,16.541,13.457,29.998,29.998,29.998h263.986c16.541,0,29.998-13.457,29.998-29.998V345.995
			C417.991,329.454,404.534,315.997,387.993,315.997z"/>
	</g>
</g>
<g>
	<g>
		<path d="M511.798,245.781c-1.758-44.866-15.002-87.643-38.576-125.272c4.299,0.773,8.76-1.345,10.761-5.468
			c2.412-4.968,0.34-10.951-4.628-13.362L452.357,88.57c-3.099-1.504-6.754-1.308-9.674,0.521s-4.693,5.031-4.693,8.476v30.665
			c0,5.523,4.477,10,10,10c4.027,0,7.489-2.385,9.073-5.815c47.586,77.195,47.076,175.506-3.532,252.824
			c-3.024,4.621-1.73,10.818,2.891,13.843c1.689,1.105,3.589,1.634,5.467,1.634c3.261,0,6.458-1.593,8.376-4.524
			C499.539,351.466,513.901,299.455,511.798,245.781z"/>
	</g>
</g>
<g>
	<g>
		<path d="M62.153,104.168c-4.476-3.236-10.726-2.232-13.962,2.244l-0.138,0.191c-3.236,4.476-2.231,10.726,2.244,13.962
			c1.771,1.281,3.82,1.897,5.851,1.897c3.1,0,6.157-1.437,8.112-4.141l0.138-0.191C67.633,113.654,66.628,107.404,62.153,104.168z"
			/>
	</g>
</g>
<g>
	<g>
		<path d="M65.51,371.994c-5.071,0-9.25,3.778-9.901,8.672C14.285,314.456,8.171,232.009,40.599,159.477
			c2.254-5.042-0.006-10.956-5.048-13.21c-5.043-2.253-10.956,0.006-13.21,5.048C3.466,193.533-3.651,240.161,1.761,286.153
			c4.327,36.766,16.602,72.004,35.869,103.446c-3.381,0.302-6.525,2.308-8.116,5.584c-2.412,4.968-0.34,10.951,4.628,13.362
			l26.999,13.108c1.383,0.671,2.877,1.004,4.367,1.004c1.848,0,3.691-0.512,5.307-1.524c2.92-1.828,4.693-5.031,4.693-8.476v-30.665
			C75.509,376.471,71.032,371.994,65.51,371.994z"/>
	</g>
</g>
<g>
</g>
<g>
</g>
<g>
</g>
<g>
</g>
<g>
</g>
<g>
</g>
<g>
</g>
<g>
</g>
<g>
</g>
<g>
</g>
<g>
</g>
<g>
</g>
<g>
</g>
<g>
</g>
<g>
</g>
</svg>
